HIERARCHY
ROOT Hips
{
  OFFSET -0.0456056 90.3504 -2.13493
  CHANNELS 6 Xposition Yposition Zposition Zrotation Xrotation Yrotation
  JOINT Spine
  {
    OFFSET -0.000355721 21.3001 -0.016921
    CHANNELS 3 Zrotation Xrotation Yrotation
    JOINT LeftArm
    {
      OFFSET 13.5181 21.3012 0
      CHANNELS 3 Zrotation Xrotation Yrotation
      JOINT LeftForeArm
      {
        OFFSET 24.5783 0 0
        CHANNELS 3 Zrotation Xrotation Yrotation
        JOINT LeftHand
        {
          OFFSET 24.5783 0 0
          CHANNELS 3 Zrotation Xrotation Yrotation
          End Site
          {
            OFFSET 7.32568 1.52588e-05 0.0169305
          }
        }
      }
    }
    JOINT Head
    {
      OFFSET 0 27.4458 -0.00489235
      CHANNELS 3 Zrotation Xrotation Yrotation
      End Site
      {
        OFFSET 0 0 0
      }
    }
    JOINT RightArm
    {
      OFFSET -13.5174 21.3012 0
      CHANNELS 3 Zrotation Xrotation Yrotation
      JOINT RightForeArm
      {
        OFFSET -24.5783 0 0
        CHANNELS 3 Zrotation Xrotation Yrotation
        JOINT RightHand
        {
          OFFSET -24.5783 0 0
          CHANNELS 3 Zrotation Xrotation Yrotation
          End Site
          {
            OFFSET -7.32568 1.52588e-05 0.0169305
          }
        }
      }
    }
  }
  JOINT RightUpLeg
  {
    OFFSET -8.44614 -9.41038 0.835684
    CHANNELS 3 Zrotation Xrotation Yrotation
    JOINT RightLeg
    {
      OFFSET 0 -40.9639 0
      CHANNELS 3 Zrotation Xrotation Yrotation
      JOINT RightFoot
      {
        OFFSET 0 -40.9639 0
        CHANNELS 3 Zrotation Xrotation Yrotation
        End Site
        {
          OFFSET 0.50614 -9.67405 14.6709
        }
      }
    }
  }
  JOINT LeftUpLeg
  {
    OFFSET 8.44614 -9.41038 0.835684
    CHANNELS 3 Zrotation Xrotation Yrotation
    JOINT LeftLeg
    {
      OFFSET 0 -40.9639 0
      CHANNELS 3 Zrotation Xrotation Yrotation
      JOINT LeftFoot
      {
        OFFSET 0 -40.9639 0
        CHANNELS 3 Zrotation Xrotation Yrotation
        End Site
        {
          OFFSET -0.50614 -9.67405 14.6709
        }
      }
    }
  }
}
MOTION
Frames:	9
Frame Time:	0.0333333
0.0367501 91.0176 -0.876808 1.36245 -6.52619 -5.6004 0.223438 2.54913 0.517884 -38.8881 64.0746 -43.8182 6.45196e-05 5.96128e-06 -7.86689 -6.86898 -28.9509 -12.0401 -2.27274 -9.88099 19.0725 60.8463 43.0852 18.3639 9.15424e-05 -2.37139e-06 20.2436 14.5965 -11.8107 -6.14659 -10.319 -4.65256 -27.4467 -4.15482 31.6689 7.89824 4.65532 -48.6123 1.1481 5.35195 -1.58684 22.234 2.71907 27.4415 3.19679 -8.17666 -46.729 -0.910554 
0.270238 91.0053 -0.957564 1.10803 -6.55141 -6.79235 0.264152 2.50177 0.339883 -38.8501 64.5821 -43.74 6.45083e-05 5.96283e-06 -7.75846 -6.7647 -29.3693 -11.7672 -2.49571 -9.38785 20.1581 61.6196 42.5092 18.4961 9.15184e-05 -2.38012e-06 19.6634 14.3747 -13.0277 -5.02712 -10.2604 -4.95505 -26.8973 -4.17183 31.6877 8.32725 4.82041 -48.3792 1.56538 5.36537 -1.51106 22.9113 2.8827 27.6161 3.64395 -8.30761 -46.8987 -0.919907 
0.514576 90.9931 -1.02173 0.83618 -6.6014 -8.05664 0.30534 2.45189 0.129339 -38.9032 65.154 -43.4754 6.45007e-05 5.96386e-06 -7.68524 -6.65197 -29.8296 -11.5121 -2.75197 -8.80456 21.3335 62.2811 41.8977 18.755 9.14917e-05 -2.38948e-06 19.0231 14.3209 -14.2051 -3.82166 -10.1753 -5.22573 -26.3041 -4.21647 31.6802 8.79297 5.01584 -48.1344 2.00798 5.3635 -1.37663 23.667 3.09402 27.765 4.10568 -8.50397 -47.0662 -0.983255 
0.78544 90.9837 -1.03971 0.523368 -6.71237 -9.45782 0.346368 2.39782 -0.163223 -39.1789 65.8717 -42.7173 6.45049e-05 5.9633e-06 -7.72522 -6.522 -30.3619 -11.3126 -3.10168 -8.02481 22.8128 62.5269 41.293 19.4384 9.14566e-05 -2.4013e-06 18.1828 14.7372 -15.231 -2.3548 -10.0404 -5.40353 -25.6142 -4.31557 31.604 9.35658 5.25171 -47.8725 2.45937 5.31478 -1.09835 24.6127 3.438 27.8391 4.61037 -8.89848 -47.2231 -1.23712 
1.05472 90.979 -1.05438 0.213415 -6.79499 -10.8066 0.386454 2.34504 -0.451303 -39.3871 66.5846 -42.0032 6.45108e-05 5.96248e-06 -7.78256 -6.38367 -30.854 -11.1151 -3.43759 -7.29217 24.3552 62.4156 40.912 20.5156 9.14161e-05 -2.41423e-06 17.219 15.4944 -16.129 -0.730304 -9.90069 -5.57545 -24.9414 -4.38946 31.4956 9.91563 5.44529 -47.5984 2.84601 5.2574 -0.847041 25.538 3.78796 27.8841 5.1194 -9.32163 -47.3486 -1.53666 
1.3256 90.969 -1.07045 -0.112366 -6.89107 -12.2346 0.427977 2.28931 -0.745764 -39.629 67.3574 -41.2684 6.45141e-05 5.96203e-06 -7.81432 -6.24719 -31.4057 -10.9119 -3.74132 -6.48247 25.8173 61.5046 41.1861 22.7847 9.13566e-05 -2.43188e-06 15.8118 17.2083 -16.6949 1.46965 -9.74327 -5.7575 -24.2424 -4.49543 31.4042 10.4764 5.69946 -47.3182 3.31779 5.20358 -0.568666 26.493 4.12869 27.9366 5.6211 -9.7143 -47.4842 -1.77434 
1.60073 90.9453 -1.09148 -0.475317 -7.03287 -13.8555 0.473886 2.22707 -1.0562 -39.9705 68.2533 -40.4742 6.4511e-05 5.96246e-06 -7.78404 -6.11952 -32.1026 -10.6957 -3.98718 -5.49455 27.0795 58.6285 41.7492 26.4625 9.13029e-05 -2.44645e-06 14.5504 19.9702 -14.06 2.6456 -9.55268 -5.9583 -23.4803 -4.67781 31.3633 11.0461 6.09604 -47.0325 3.99923 5.16318 -0.215598 27.5197 4.44744 28.0229 6.10498 -10.0277 -47.6624 -1.8592 
1.88276 90.8986 -1.12079 -0.904751 -7.25208 -15.7952 0.527441 2.15411 -1.39279 -40.4607 69.3553 -39.5986 6.44971e-05 5.96434e-06 -7.6509 -6.00621 -33.0395 -10.4588 -4.13428 -4.22119 28.0144 55.3246 41.7945 30.7613 9.12724e-05 -2.45415e-06 13.8379 23.0697 -8.73229 3.01723 -9.30393 -6.19074 -22.6147 -4.99219 31.4117 11.631 6.72443 -46.7386 5.02596 5.14685 0.259713 28.6643 4.73275 28.1762 6.55778 -10.2081 -47.9187 -1.6889 
2.17441 90.8178 -1.16167 -1.44541 -7.58223 -18.212 0.59277 2.06516 -1.76847 -41.1184 70.7884 -38.6505 6.44673e-05 5.96827e-06 -7.36459 -5.91172 -34.3343 -10.1913 -4.11389 -2.53435 28.4712 52.3732 40.7701 34.3709 9.13081e-05 -2.44507e-06 14.674 25.8425 -1.67999 2.48287 -8.95886 -6.46129 -21.5955 -5.50391 31.5837 12.2428 7.68925 -46.4235 6.56329 5.16655 0.925442 29.983 4.96642 28.4253 6.9655 -10.1874 -48.2905 -1.13418 
